<?xml version="1.0" encoding="UTF-8"?>
<svg version="1.1" xmlns="http://www.w3.org/2000/svg" width="280" height="280">
<path d="M0 0 C2.29585417 2.2176387 4.08289154 4.42703864 6 7 C6.94875 6.13375 7.8975 5.2675 8.875 4.375 C17.60801957 -3.01043939 26.14212069 -7.49681676 37.85546875 -6.83984375 C47.39508343 -5.45397589 55.06562469 -1.71106453 61.52734375 5.44921875 C66.40802935 13.90303227 66.40791741 22.79792799 66.29296875 32.3203125 C66.28735977 33.67365036 66.28309584 35.0269944 66.28010559 36.38034058 C66.26875896 39.90838018 66.23938253 43.43603759 66.20599365 46.96392822 C66.17507038 50.57746114 66.16138767 54.19105885 66.14648438 57.8046875 C66.11609974 64.87012702 66.05735655 71.93452288 66 79 C56.43 79 46.86 79 37 79 C36.95101562 75.54402344 36.90203125 72.08804688 36.8515625 68.52734375 C36.7975018 65.16800734 36.74021424 61.80874031 36.68261719 58.44946289 C36.64441221 56.12073976 36.60954474 53.79195933 36.578125 51.46313477 C36.53229038 48.1093299 36.47432575 44.75591665 36.4140625 41.40234375 C36.40251129 40.36665756 36.39096008 39.33097137 36.37905884 38.26390076 C36.28955348 28.76697225 36.28955348 28.76697225 31.9375 20.625 C27.97488028 18.4329125 24.51351989 17.80895154 20 18 C16.2462038 19.18175065 14.59457147 20.13531431 12.36791992 23.37353516 C10.40753052 28.57068386 10.52011774 33.4481826 10.48828125 38.9609375 C10.46135445 40.67949448 10.46135445 40.67949448 10.43388367 42.43276978 C10.37984563 46.08014279 10.34590482 49.7273854 10.3125 53.375 C10.2793213 55.8528827 10.24483113 58.33074821 10.20898438 60.80859375 C10.12166211 66.87241396 10.06153475 72.93564416 10 79 C0.43 79 -9.14 79 -19 79 C-19.03738281 75.39964844 -19.07476562 71.79929687 -19.11328125 68.08984375 C-19.1595314 64.59149197 -19.21075253 61.0932457 -19.26245117 57.5949707 C-19.29564466 55.16925502 -19.32369384 52.74346314 -19.34643555 50.31762695 C-19.38008331 46.82470316 -19.43240631 43.33247415 -19.48828125 39.83984375 C-19.49467117 38.76041 -19.5010611 37.68097626 -19.50764465 36.5688324 C-19.62241029 30.65184806 -20.01731956 26.1733942 -23 21 C-27.74629727 17.96236975 -31.44181984 17.5648659 -36.98046875 18.4140625 C-39.84277213 19.24451802 -41.26715537 20.61733863 -43 23 C-44.26593439 25.53186878 -44.15918194 27.34974791 -44.20532227 30.18408203 C-44.22526749 31.26505157 -44.24521271 32.34602112 -44.26576233 33.45974731 C-44.29083107 35.21603958 -44.29083107 35.21603958 -44.31640625 37.0078125 C-44.33718735 38.20356903 -44.35796844 39.39932556 -44.37937927 40.63131714 C-44.44492289 44.46248464 -44.50378218 48.29372238 -44.5625 52.125 C-44.60568063 54.71745527 -44.64929477 57.30990336 -44.69335938 59.90234375 C-44.80142733 66.26815814 -44.90046544 72.6340235 -45 79 C-54.9 79 -64.8 79 -75 79 C-75 51.61 -75 24.22 -75 -4 C-65.1 -4 -55.2 -4 -45 -4 C-44.67 -2.02 -44.34 -0.04 -44 2 C-43.32195313 1.51789062 -42.64390625 1.03578125 -41.9453125 0.5390625 C-28.61440564 -8.50822886 -13.77473974 -9.58026944 0 0 Z " fill="#1B1B1B" transform="translate(81,59)"/>
<path d="M0 0 C9.57 0 19.14 0 29 0 C29 45.54 29 91.08 29 138 C19.43 138 9.86 138 0 138 C-0.495 134.535 -0.495 134.535 -1 131 C-1.8353125 131.59748047 -1.8353125 131.59748047 -2.6875 132.20703125 C-13.25030873 139.54033258 -22.30509125 141.30046903 -35 140 C-45.89482232 137.78678337 -54.0792581 131.16607735 -60.5 122.29296875 C-67.64657732 111.36838311 -69.38271814 97.82936465 -66.87890625 85.08984375 C-63.79186899 74.23719277 -57.66566812 64.38914212 -48.140625 58.1171875 C-36.45772297 51.85200428 -25.90063442 50.998229 -13 54 C-8.48988698 55.71678925 -4.43259235 57.56740765 -1 61 C-0.67 40.87 -0.34 20.74 0 0 Z M-33.4375 84.5625 C-37.04871788 90.19599989 -36.55419668 96.52916832 -36 103 C-34.37280627 108.4022832 -30.85372674 111.31495967 -26 114 C-20.22287021 115.92570993 -14.1900706 115.90187619 -8.625 113.3125 C-4.0383887 110.66780074 -1.70810807 107.71969102 0.3125 102.8125 C1.42201424 96.65973919 1.12068675 91.37585591 -1.5625 85.6875 C-5.38360413 81.47448776 -8.95058362 78.51045543 -14.68359375 77.55078125 C-22.38085014 77.24118287 -28.09193334 78.94280172 -33.4375 84.5625 Z " fill="#1B1B1B" transform="translate(225,0)"/>
<path d="M0 0 C8.58 0 17.16 0 26 0 C26.020625 4.08375 26.04125 8.1675 26.0625 12.375 C26.071604 13.66196777 26.08070801 14.94893555 26.09008789 16.27490234 C26.09258545 17.28504395 26.09508301 18.29518555 26.09765625 19.3359375 C26.10289307 20.37282715 26.10812988 21.4097168 26.11352539 22.47802734 C26 25 26 25 25 27 C30.28 27 35.56 27 41 27 C41 33.6 41 40.2 41 47 C36.05 47.33 31.1 47.66 26 48 C26.11967124 51.96952059 26.24221717 55.93878262 26.37231445 59.90795898 C26.41571223 61.25914147 26.4573837 62.61038053 26.49731445 63.96166992 C26.55489952 65.90036701 26.61914298 67.83886276 26.68359375 69.77734375 C26.72025146 70.94515381 26.75690918 72.11296387 26.79467773 73.31616211 C26.70076188 75.91779795 26.70076188 75.91779795 28 77 C31.36629251 77.14636054 33.78419562 77.07193479 37 76 C38.70335636 80.3800592 40.30954564 84.77596203 41.75 89.25 C42.01296875 90.05953125 42.2759375 90.8690625 42.546875 91.703125 C43.05573699 94.28252889 42.92950356 95.55625617 42 98 C36.2856444 100.8125344 31.30585759 101.49668467 25 101.4375 C24.24460937 101.45748047 23.48921875 101.47746094 22.7109375 101.49804688 C17.03646979 101.4931719 12.70665158 100.21785472 8 97 C5.9765625 94.8515625 5.9765625 94.8515625 4.625 92.625 C4.16351563 91.89539063 3.70203125 91.16578125 3.2265625 90.4140625 C0.40821333 84.86712051 -0.28187975 79.91844466 -0.1953125 73.7578125 C-0.1924826 72.98944061 -0.18965271 72.22106873 -0.18673706 71.42941284 C-0.17561311 68.99444479 -0.1505236 66.55985538 -0.125 64.125 C-0.11496011 62.46615118 -0.10583603 60.80729654 -0.09765625 59.1484375 C-0.07569937 55.09881421 -0.04122406 51.04947113 0 47 C-3.63 47 -7.26 47 -11 47 C-11.33 42.71 -11.66 38.42 -12 34 C-14.97 39.61 -17.94 45.22 -21 51 C-23.97 50.01 -26.94 49.02 -30 48 C-35.55604775 47.50244349 -39.36685176 47.767571 -44 51 C-47.38618346 56.18766742 -47.46861604 60.78531991 -47.51171875 66.7734375 C-47.52966995 67.6971817 -47.54762115 68.6209259 -47.56611633 69.57266235 C-47.62005424 72.50672926 -47.654062 75.44063501 -47.6875 78.375 C-47.72068766 80.37111609 -47.75517865 82.36721097 -47.79101562 84.36328125 C-47.87821175 89.24220858 -47.93842124 94.12041379 -48 99 C-56.58 99 -65.16 99 -74 99 C-74 75.24 -74 51.48 -74 27 C-65.42 27 -56.84 27 -48 27 C-47.67 29.31 -47.34 31.62 -47 34 C-46.57589844 33.60167969 -46.15179688 33.20335937 -45.71484375 32.79296875 C-39.84287907 27.48884241 -34.06065694 24.40986391 -26 24 C-20.98224768 24.63692831 -16.46467741 25.56752058 -12 28 C-11.505 27.505 -11.505 27.505 -11 27 C-7.37 27 -3.74 27 0 27 C0 18.09 0 9.18 0 0 Z " fill="#1C1C1C" transform="translate(170,179)"/>
<path d="M0 0 C8.25 0 16.5 0 25 0 C25.33 23.76 25.66 47.52 26 72 C33.59 64.41 41.18 56.82 49 49 C56.20489724 47.1236937 60.07454413 46.32880501 66.9375 47.0625 C68.42206994 47.13004704 69.90717614 47.18668966 71.39257812 47.23242188 C74.94347444 47.36447969 78.46424005 47.63744934 82 48 C82 51 82 51 80.68945312 52.38696289 C80.05974609 52.8896167 79.43003906 53.39227051 78.78125 53.91015625 C74.9892033 57.08775094 71.45848287 60.4332708 67.96875 63.93359375 C67.44321533 64.46014557 66.91768066 64.98669739 66.3762207 65.52920532 C64.74883263 67.16334643 63.12435729 68.80034679 61.5 70.4375 C60.38044368 71.5620833 59.26065371 72.68643405 58.140625 73.81054688 C55.42438466 76.53769344 52.71131708 79.26795907 50 82 C51.37423068 85.09091851 52.94075706 87.17812353 55.34814453 89.54345703 C56.02869904 90.21740509 56.70925354 90.89135315 57.41043091 91.58572388 C58.14381683 92.30251312 58.87720276 93.01930237 59.6328125 93.7578125 C60.38464813 94.50207489 61.13648376 95.24633728 61.91110229 96.01315308 C64.31099863 98.38862203 66.71719905 100.7575452 69.125 103.125 C72.29991795 106.2469501 75.46833108 109.37528824 78.6328125 112.5078125 C79.37024689 113.22865021 80.10768127 113.94948792 80.86746216 114.69216919 C81.87883743 115.6936348 81.87883743 115.6936348 82.91064453 116.71533203 C83.50861847 117.30283234 84.10659241 117.89033264 84.72268677 118.49563599 C86 120 86 120 86 122 C57.79900597 125.34019345 57.79900597 125.34019345 47.83789062 118.40087891 C39.45517269 111.73237504 32.63249122 103.34540417 26 95 C25.67 103.58 25.34 112.16 25 121 C16.75 121 8.5 121 0 121 C0 81.07 0 41.14 0 0 Z " fill="#1A1A1A" transform="translate(6,157)"/>
<path d="M0 0 C0.99 0.66 1.98 1.32 3 2 C2.38188466 6.55315948 0.53234107 10.28459767 -1.5625 14.3125 C-1.89185547 14.95767578 -2.22121094 15.60285156 -2.56054688 16.26757812 C-3.36824255 17.84785228 -4.18337613 19.42432105 -5 21 C-5.58523438 20.83757812 -6.17046875 20.67515625 -6.7734375 20.5078125 C-10.51152504 19.65526622 -14.51826084 19.25913042 -18 21 C-19.33593951 25.00781852 -19.17790164 28.88046174 -19.20532227 33.0612793 C-19.21522186 33.98830658 -19.22512146 34.91533386 -19.23532104 35.87045288 C-19.26693936 38.93834875 -19.29169486 42.00626011 -19.31640625 45.07421875 C-19.33697548 47.19985866 -19.35797195 49.32549447 -19.37937927 51.4511261 C-19.43460306 57.04884529 -19.48401103 62.64660141 -19.53222656 68.24438477 C-19.58243931 73.95527437 -19.63812656 79.66611026 -19.69335938 85.37695312 C-19.80094474 96.58459126 -19.90188311 107.79227496 -20 119 C-28.58 119 -37.16 119 -46 119 C-46 101.84 -46 84.68 -46 67 C-49.3 67 -52.6 67 -56 67 C-56 60.4 -56 53.8 -56 47 C-52.7 47 -49.4 47 -46 47 C-46.03480469 45.46730469 -46.06960937 43.93460938 -46.10546875 42.35546875 C-46.13363284 40.29949024 -46.16093016 38.24349973 -46.1875 36.1875 C-46.22520508 34.68026367 -46.22520508 34.68026367 -46.26367188 33.14257812 C-46.3714962 21.96479005 -44.18097095 11.6494553 -36.40234375 3.28125 C-25.85369143 -6.52250888 -12.53919126 -5.89320481 0 0 Z " fill="#1C1C1C" transform="translate(271,159)"/>
<path d="M0 0 C1.093125 0.4125 2.18625 0.825 3.3125 1.25 C6.65029028 4.6654133 6.60529188 6.24457869 6.875 10.9375 C6.61382772 17.20563472 6.61382772 17.20563472 4.40625 20.0625 C1.20791324 22.22752796 -1.20053027 22.98368429 -5.0625 23.0625 C-8.6976165 21.74767063 -11.71401912 20.03730814 -15 18 C-15.59140434 13.20305367 -15.87294467 8.77209751 -15 4 C-10.59619099 -1.01614817 -6.08977831 -3.08495348 0 0 Z " fill="#1D1D1D" transform="translate(268,204)"/>
<path d="M0 0 C0.33 0 0.66 0 1 0 C1 18.15 1 36.3 1 55 C-8.57 55 -18.14 55 -28 55 C-28 54.34 -28 53.68 -28 53 C-19.09 53 -10.18 53 -1 53 C-1.01160156 49.34164062 -1.02320312 45.68328125 -1.03515625 41.9140625 C-1.04294816 38.38281338 -1.04902416 34.85156521 -1.05493164 31.3203125 C-1.05996989 28.86034722 -1.0668006 26.40038495 -1.07543945 23.94042969 C-1.08752723 20.41079975 -1.09323329 16.88120931 -1.09765625 13.3515625 C-1.10281754 12.24632233 -1.10797882 11.14108215 -1.11329651 10.00234985 C-1.11340981 8.47098892 -1.11340981 8.47098892 -1.11352539 6.90869141 C-1.115746 6.00712311 -1.11796661 5.10555481 -1.12025452 4.17666626 C-1 2 -1 2 0 0 Z " fill="#262626" transform="translate(90,83)"/>
<path d="M0 0 C0.33 0 0.66 0 1 0 C1.33 12.54 1.66 25.08 2 38 C-5.59 38 -13.18 38 -21 38 C-21 37.34 -21 36.68 -21 36 C-14.07 36 -7.14 36 0 36 C0 24.12 0 12.24 0 0 Z " fill="#151515" transform="translate(119,240)"/>
<path d="M0 0 C1.485 0.99 1.485 0.99 3 2 C3 2.66 3 3.32 3 4 C-8.22 3.67 -19.44 3.34 -31 3 C-31 2.67 -31 2.34 -31 2 C-20.77 2 -10.54 2 0 2 C0 1.34 0 0.68 0 0 Z " fill="#292929" transform="translate(89,275)"/>
<path d="M0 0 C1.32 0.33 2.64 0.66 4 1 C1.03 3.97 -1.94 6.94 -5 10 C-5.99 9.67 -6.98 9.34 -8 9 C-6.85459775 7.68712379 -5.70866567 6.37470979 -4.5625 5.0625 C-3.92441406 4.33160156 -3.28632813 3.60070313 -2.62890625 2.84765625 C-1.77458541 1.87860647 -0.91348825 0.91348825 0 0 Z " fill="#2B2B2B" transform="translate(174,60)"/>
<path d="M0 0 C-1.28185372 3.84556115 -2.78579777 4.42068027 -6.2109375 6.28125 C-8 7 -8 7 -10.4375 6.75 C-10.953125 6.5025 -11.46875 6.255 -12 6 C-11.01 6 -10.02 6 -9 6 C-9 5.34 -9 4.68 -9 4 C-2.25 0 -2.25 0 0 0 Z " fill="#2F2F2F" transform="translate(274,220)"/>
<path d="M0 0 C0.66 0 1.32 0 2 0 C0.90931332 3.77545388 0.0916909 6.47043472 -3 9 C-3.66 8.34 -4.32 7.68 -5 7 C-4.34 6.67 -3.68 6.34 -3 6 C-1.95191959 4.02477154 -0.9479589 2.02518491 0 0 Z " fill="#3C3C3C" transform="translate(151,221)"/>
</svg>
